# xmcd
#
# Track frame offsets:
#  150
#  13841
#  32190
#  48645
#
# Disc length: 820 seconds
#
# Revision: 0
# Processed by: cddbd v1.5.2PL0 Copyright (c) Steve Scherf et al.
# Submitted via: AltoMP3_Maker 3.0
#
DISCID=30033204
DTITLE=Dean Johnston - Wild Side
DYEAR=1900
DGENRE=
TTITLE0=Wild Side
TTITLE1=Tailgate
TTITLE2=Jessie
TTITLE3=What's an Aussie Bloke Suppose to Do
EXTD=
EXTT0=
EXTT1=
EXTT2=
EXTT3=
PLAYORDER=
